<?xml version="1.0" encoding="utf-8"?>
<!-- Generator: Adobe Illustrator 28.1.0, SVG Export Plug-In . SVG Version: 6.00 Build 0)  -->
<svg version="1.1" id="Layer_1" xmlns="http://www.w3.org/2000/svg" xmlns:xlink="http://www.w3.org/1999/xlink" x="0px" y="0px"
	 viewBox="0 0 2048 2048" style="enable-background:new 0 0 2048 2048;" xml:space="preserve">
<style type="text/css">
	.st0{fill:#856B43;}
</style>
<g>
	<path class="st0" d="M598.2,558.2l329,816c13.5,32.9,28.8,54.7,45.9,65.5c17.1,10.8,32.8,16.7,47.2,17.5v25.9
		c-18-1.7-40-2.8-66.1-3.3c-26.1-0.4-52.1-0.7-78.2-0.7c-35.1,0-67.9,0.2-98.4,0.7c-30.6,0.5-55.3,1.5-74.1,3.3v-25.9
		c45.9-1.7,75-9.3,87.7-22.7c12.6-13.4,9.9-42.2-8.1-86.3L532.2,703.6l21.6-16.9l-234.6,586.4c-14.4,34.6-22.9,63.8-25.6,87.6
		c-2.7,23.8-0.2,42.6,7.4,56.4c7.6,13.9,20.7,23.8,39.1,29.8c18.4,6.1,41.6,9.5,69.4,10.4v25.9c-25.2-1.7-51.5-2.8-78.9-3.3
		c-27.4-0.4-52.8-0.7-76.2-0.7s-41.6,0.2-57.3,0.7c-15.8,0.5-30.3,1.5-43.8,3.3v-25.9c18-4.3,36.4-14.5,55.3-30.5
		c18.9-16,36-43.5,51.2-82.4l316.9-786.1L598.2,558.2L598.2,558.2z M762.7,1109.6v25.9H360.9l13.5-25.9H762.7L762.7,1109.6z"/>
	<path class="st0" d="M1499.6,546.5c58.4,0,105.6,8.4,141.6,25.3c35.9,16.9,69.6,36.6,101.1,59c11.7,8.7,20.7,13,27,13
		c17.1,0,28.3-26.4,33.7-79.1h31c-1.8,32-3.1,70.9-4.1,116.8c-0.9,45.9-1.4,106.4-1.4,181.6h-31c-6.3-36.3-13.9-71.4-22.9-105.1
		c-9-33.7-23.8-62.7-44.5-86.9c-26.1-32-60.2-56.9-102.5-74.6c-42.3-17.7-85.9-26.6-130.8-26.6c-44.9,0-85.6,10.6-122,31.8
		c-36.4,21.2-67.6,51.7-93.7,91.4c-26.1,39.8-46.1,87.6-60,143.3c-14,55.8-20.9,118.7-20.9,188.8c0,155.7,26.1,269.6,78.2,341.8
		c52.1,72.2,133,108.3,242.7,108.3c32.4,0,60.4-4.5,84.3-13.6c23.8-9.1,42.5-18,56-26.6c17.1-11.2,27.9-21.8,32.4-31.8
		c4.5-9.9,6.7-23.1,6.7-39.6v-124.5c0-35.4-3.6-61.8-10.8-79.1c-7.2-17.3-20.5-28.9-39.8-35c-19.3-6-47.9-9.5-85.6-10.4v-25.9
		c16.2,0.9,35.1,1.5,56.6,1.9c21.6,0.5,44.3,0.9,68.1,1.3c23.8,0.4,45.6,0.7,65.4,0.7c29.7,0,56.4-0.4,80.2-1.3
		c23.8-0.9,43.8-1.7,60-2.6v25.9c-19.8,0.9-34.6,3.9-44.5,9.1c-9.9,5.2-16.4,15.6-19.5,31.2c-3.2,15.6-4.7,39.4-4.7,71.4v256.9h-27
		c-0.9-14.7-4.3-30.7-10.1-48c-5.8-17.3-14.6-25.9-26.3-25.9c-5.4,0-10.8,1.3-16.2,3.9c-5.4,2.6-14.8,8.7-28.3,18.2
		c-29.7,21.6-61.1,38.7-94.4,51.2c-33.3,12.5-71.9,18.8-116,18.8c-92.6,0-171.9-18.4-238-55.1s-116.6-89.7-151.7-158.9
		c-35.1-69.2-52.6-151.8-52.6-247.8c0-101.2,18.9-188.5,56.6-262c37.8-73.5,89.2-130.4,154.4-170.6
		C1341.6,566.7,1416,546.6,1499.6,546.5L1499.6,546.5z"/>
</g>
</svg>
